# xmcd
#
# Track frame offsets: 
#        150
#        14697
#        28596
#        40599
#        51545
#        62538
#        74795
#        88075
#        101440
#        114642
#        136671
#        148206
#        159801
#        176567
#        189114
#        203093
#        216576
#        230981
#        242297
#        257775
#        272387
#        285212
#        297177
#        312415
#        333150
#
# Disc length: 4795 seconds
#
# Revision: 0
# Processed by: cddbd v1.5.1PL0 Copyright (c) Steve Scherf et al.
# Submitted via: ExactAudioCopy v0.95a5
#
DISCID=6f12b919
DTITLE=Glenn Campbell - Greatest Hits
DYEAR=2003
DGENRE=Country
TTITLE0=Rhinestone Cowboy
TTITLE1=Wichita Linesman
TTITLE2=Galveston
TTITLE3=Try A Little Kindness
TTITLE4=It's Only Make Believe
TTITLE5=By The Time I Get To Phoenix
TTITLE6=Gentle On My Mind
TTITLE7=Southern Nights
TTITLE8=Where's The Playground Susie
TTITLE9=MacArthur Park
TTITLE10=Dreams Of The Everyday Housewife
TTITLE11=All I Have To Do Is Dream
TTITLE12=Both Sides Now
TTITLE13=Boanparte's Retreat
TTITLE14=Country Boy
TTITLE15=Honey Come Back
TTITLE16=My Elusive Dreams
TTITLE17=Dream Baby
TTITLE18=Ocean In His Eyes
TTITLE19=Little Green Apples
TTITLE20=Sunflower
TTITLE21=Roll Me Easy
TTITLE22=Don't Pull Your Love
TTITLE23=Let It Be Me
TTITLE24=Rhinestone Cowboy
EXTD=
EXTT0=
EXTT1=
EXTT2=
EXTT3=
EXTT4=
EXTT5=
EXTT6=
EXTT7=
EXTT8=
EXTT9=
EXTT10=
EXTT11=
EXTT12=
EXTT13=
EXTT14=
EXTT15=
EXTT16=
EXTT17=
EXTT18=
EXTT19=
EXTT20=
EXTT21=
EXTT22=
EXTT23=
EXTT24=
PLAYORDER=
